<?xml version="1.0" encoding="UTF-8"?>
<svg id="Lager_2" data-name="Lager 2" xmlns="http://www.w3.org/2000/svg" viewBox="0 0 1276.76 154.24">
  <defs>
    <style>
      .cls-1 {
        fill: #0f80a7;
      }

      .cls-2 {
        fill: #0b496e;
      }
    </style>
  </defs>
  <g id="Lager_1-2" data-name="Lager 1">
    <g>
      <g>
        <path class="cls-1" d="M61.22,24.6c51.68,0,64.42,21.83,64.42,21.83h.2v-29.01H0v29.01h.2s9.33-21.83,61.01-21.83Z"/>
        <path class="cls-1" d="M64.62,145.83C12.93,145.83.2,123.99.2,123.99h-.2v29.02h125.83v-29.02h-.2s-9.32,21.83-61.01,21.83Z"/>
        <path class="cls-1" d="M118.8,76.05c0-30.23-31.04-38.17-55.88-38.18-20.38-.01-42.6,9.45-44.23,14.73-1.64,5.29-.58,15.72-4.84,22.68-1.33,2.18-4.8,3.63-3.91,4.21.89.59,3.89-1.53,4.72-1.15.83.37,1.42,3.56,2.59,3.33,1.17-.24-1.28-3.38,0-6.25,8.34-18.59,20.05-26.15,37.86-27.82v60.38c-4.09-.32-8.18-.99-12.89-2.47-12.92-4.08-17.7-11.94-27.54-11.4-.54.02-.46.16-.17.32,1.66,1.18,3.22,2.86,4.71,4.86,7.06,10.14,21.78,14.9,35.88,16.35v5.44c0,9.8-5.7,13.95-10.57,15.19v.2h36.79v-.2c-4.87-1.24-10.57-5.39-10.57-15.19v-5.13c23.45-1.54,48.06-12.16,48.06-39.9ZM103.97,76.74c-.35,21.4-15.89,29.25-33.24,31.07v-60.19c14.51,1.54,33.57,8.21,33.24,29.11Z"/>
      </g>
      <g>
        <path class="cls-1" d="M167.73,17.04c8.27,0,14.61,1.45,19.04,4.36,4.43,2.91,6.64,7.67,6.64,14.28s-2.24,11.48-6.72,14.44c-4.48,2.96-10.88,4.44-19.2,4.44h-3.92v18.56h-12.48V18.48c2.72-.53,5.6-.91,8.64-1.12,3.04-.21,5.71-.32,8-.32ZM168.53,27.68c-.91,0-1.8.03-2.68.08-.88.05-1.64.11-2.28.16v16h3.92c4.32,0,7.57-.59,9.76-1.76,2.19-1.17,3.28-3.36,3.28-6.56,0-1.55-.28-2.83-.84-3.84-.56-1.01-1.36-1.83-2.4-2.44-1.04-.61-2.31-1.04-3.8-1.28-1.49-.24-3.15-.36-4.96-.36Z"/>
        <path class="cls-1" d="M218.05,17.04c8.32,0,14.69,1.48,19.12,4.44s6.64,7.56,6.64,13.8c0,3.89-.89,7.05-2.68,9.48-1.79,2.43-4.36,4.33-7.72,5.72,1.12,1.39,2.29,2.97,3.52,4.76,1.23,1.79,2.44,3.65,3.64,5.6,1.2,1.95,2.36,3.97,3.48,6.08,1.12,2.11,2.16,4.17,3.12,6.2h-13.95c-1.02-1.81-2.05-3.65-3.09-5.52-1.04-1.87-2.11-3.68-3.21-5.44-1.1-1.76-2.18-3.43-3.25-5-1.07-1.57-2.14-3-3.21-4.28h-6.16v20.24h-12.48V18.48c2.72-.53,5.53-.91,8.44-1.12,2.91-.21,5.51-.32,7.8-.32ZM218.77,27.68c-.91,0-1.72.03-2.44.08-.72.05-1.4.11-2.04.16v15.04h3.52c4.69,0,8.05-.59,10.08-1.76,2.03-1.17,3.04-3.17,3.04-6s-1.03-4.65-3.08-5.8c-2.05-1.15-5.08-1.72-9.08-1.72Z"/>
        <path class="cls-1" d="M294.05,73.12c-.62-1.93-1.28-3.9-1.99-5.94-.71-2.03-1.42-4.05-2.12-6.06h-21.65c-.7,2.02-1.4,4.05-2.11,6.08-.7,2.03-1.36,4.01-1.96,5.92h-12.96c2.09-5.97,4.07-11.49,5.94-16.56,1.87-5.07,3.7-9.84,5.5-14.32,1.79-4.48,3.56-8.73,5.3-12.76,1.74-4.03,3.55-7.96,5.42-11.8h11.83c1.82,3.84,3.62,7.77,5.38,11.8,1.77,4.03,3.55,8.28,5.34,12.76,1.8,4.48,3.63,9.25,5.51,14.32,1.88,5.07,3.86,10.59,5.95,16.56h-13.37ZM279.05,30.24c-.28.8-.69,1.9-1.22,3.29-.54,1.39-1.15,2.99-1.83,4.8-.68,1.82-1.45,3.82-2.3,6-.85,2.18-1.71,4.47-2.58,6.87h15.85c-.85-2.4-1.67-4.7-2.46-6.89-.79-2.19-1.55-4.19-2.27-6.01-.72-1.82-1.34-3.42-1.88-4.8-.54-1.38-.98-2.47-1.31-3.26Z"/>
        <path class="cls-1" d="M346.41,73.12c-1.12-1.8-2.45-3.75-3.97-5.85-1.52-2.1-3.17-4.21-4.93-6.34-1.76-2.13-3.6-4.17-5.53-6.12s-3.85-3.68-5.77-5.18v23.48h-12.48V17.68h12.48v20.84c3.21-3.37,6.47-6.9,9.78-10.58,3.31-3.68,6.37-7.1,9.17-10.26h14.81c-3.77,4.49-7.57,8.81-11.39,12.96-3.82,4.15-7.84,8.32-12.05,12.52,4.43,3.7,8.71,8.09,12.83,13.17s8.08,10.68,11.89,16.79h-14.84Z"/>
        <path class="cls-1" d="M410.61,17.68v10.64h-16.72v44.8h-12.48V28.32h-16.72v-10.64h45.92Z"/>
        <path class="cls-1" d="M417.81,17.68h12.48v55.44h-12.48V17.68Z"/>
        <path class="cls-1" d="M474.97,73.12c-1.12-1.8-2.45-3.75-3.97-5.85-1.52-2.1-3.17-4.21-4.93-6.34-1.76-2.13-3.6-4.17-5.53-6.12s-3.85-3.68-5.77-5.18v23.48h-12.48V17.68h12.48v20.84c3.21-3.37,6.47-6.9,9.78-10.58,3.31-3.68,6.37-7.1,9.17-10.26h14.81c-3.77,4.49-7.57,8.81-11.39,12.96-3.82,4.15-7.84,8.32-12.05,12.52,4.43,3.7,8.71,8.09,12.83,13.17s8.08,10.68,11.89,16.79h-14.84Z"/>
        <path class="cls-1" d="M496.21,73.12V17.68h37.44v10.48h-24.96v10.88h22.16v10.24h-22.16v13.36h26.8v10.48h-39.28Z"/>
        <path class="cls-1" d="M560.13,17.04c8.32,0,14.69,1.48,19.12,4.44s6.64,7.56,6.64,13.8c0,3.89-.89,7.05-2.68,9.48-1.79,2.43-4.36,4.33-7.72,5.72,1.12,1.39,2.29,2.97,3.52,4.76,1.23,1.79,2.44,3.65,3.64,5.6,1.2,1.95,2.36,3.97,3.48,6.08,1.12,2.11,2.16,4.17,3.12,6.2h-13.95c-1.02-1.81-2.05-3.65-3.09-5.52-1.04-1.87-2.11-3.68-3.21-5.44-1.1-1.76-2.18-3.43-3.25-5-1.07-1.57-2.14-3-3.21-4.28h-6.16v20.24h-12.48V18.48c2.72-.53,5.53-.91,8.44-1.12,2.91-.21,5.51-.32,7.8-.32ZM560.85,27.68c-.91,0-1.72.03-2.44.08-.72.05-1.4.11-2.04.16v15.04h3.52c4.69,0,8.05-.59,10.08-1.76,2.03-1.17,3.04-3.17,3.04-6s-1.03-4.65-3.08-5.8c-2.05-1.15-5.08-1.72-9.08-1.72Z"/>
        <path class="cls-1" d="M636.77,17.68v10.64h-16.72v44.8h-12.48V28.32h-16.72v-10.64h45.92Z"/>
        <path class="cls-1" d="M667.65,54.48c0,2.72-.31,5.28-.92,7.68s-1.68,4.49-3.2,6.28c-1.52,1.79-3.57,3.2-6.16,4.24-2.59,1.04-5.85,1.56-9.8,1.56-3.63,0-6.75-.44-9.36-1.32-2.61-.88-4.77-1.91-6.48-3.08l4.16-9.68c1.55.91,3.2,1.71,4.96,2.4,1.76.69,3.68,1.04,5.76,1.04,3.04,0,5.23-.75,6.56-2.24,1.33-1.49,2-4,2-7.52V17.68h12.48v36.8Z"/>
        <path class="cls-1" d="M714.52,73.12c-.62-1.93-1.28-3.9-1.99-5.94-.71-2.03-1.42-4.05-2.12-6.06h-21.65c-.7,2.02-1.4,4.05-2.1,6.08-.7,2.03-1.36,4.01-1.97,5.92h-12.96c2.09-5.97,4.07-11.49,5.94-16.56,1.87-5.07,3.7-9.84,5.5-14.32,1.79-4.48,3.56-8.73,5.3-12.76,1.74-4.03,3.54-7.96,5.42-11.8h11.83c1.82,3.84,3.62,7.77,5.39,11.8,1.77,4.03,3.55,8.28,5.34,12.76s3.63,9.25,5.5,14.32c1.88,5.07,3.86,10.59,5.95,16.56h-13.37ZM690.37,12.16c-1.65,0-3.09-.55-4.32-1.64-1.23-1.09-1.84-2.57-1.84-4.44s.61-3.35,1.84-4.44c1.23-1.09,2.67-1.64,4.32-1.64s3.09.55,4.32,1.64c1.23,1.09,1.84,2.57,1.84,4.44s-.61,3.35-1.84,4.44c-1.23,1.09-2.67,1.64-4.32,1.64ZM699.53,30.24c-.28.8-.69,1.9-1.22,3.29-.54,1.39-1.15,2.99-1.83,4.8-.69,1.82-1.45,3.82-2.3,6s-1.71,4.47-2.58,6.87h15.85c-.85-2.4-1.67-4.7-2.46-6.89-.79-2.19-1.55-4.19-2.27-6.01-.72-1.82-1.34-3.42-1.88-4.8-.54-1.38-.98-2.47-1.31-3.26ZM708.21,12.16c-1.65,0-3.09-.55-4.32-1.64-1.23-1.09-1.84-2.57-1.84-4.44s.61-3.35,1.84-4.44c1.23-1.09,2.67-1.64,4.32-1.64s3.09.55,4.32,1.64c1.23,1.09,1.84,2.57,1.84,4.44s-.61,3.35-1.84,4.44c-1.23,1.09-2.67,1.64-4.32,1.64Z"/>
        <path class="cls-1" d="M771.41,73.12c-3.57-6.35-7.44-12.61-11.6-18.8-4.16-6.19-8.59-12.03-13.28-17.52v36.32h-12.32V17.68h10.16c1.76,1.76,3.71,3.92,5.84,6.48,2.13,2.56,4.31,5.29,6.52,8.2,2.21,2.91,4.41,5.92,6.6,9.04,2.19,3.12,4.24,6.12,6.16,9V17.68h12.4v55.44h-10.48Z"/>
        <path class="cls-1" d="M809.01,63.6c1.76,0,3.21-.15,4.36-.44,1.15-.29,2.07-.69,2.76-1.2.69-.51,1.17-1.11,1.44-1.8.27-.69.4-1.47.4-2.32,0-1.81-.85-3.32-2.56-4.52-1.71-1.2-4.64-2.49-8.8-3.88-1.81-.64-3.63-1.37-5.44-2.2-1.81-.83-3.44-1.87-4.88-3.12-1.44-1.25-2.61-2.77-3.52-4.56-.91-1.79-1.36-3.96-1.36-6.52s.48-4.87,1.44-6.92c.96-2.05,2.32-3.8,4.08-5.24,1.76-1.44,3.89-2.55,6.4-3.32,2.51-.77,5.33-1.16,8.48-1.16,3.73,0,6.96.4,9.68,1.2,2.72.8,4.96,1.68,6.72,2.64l-3.6,9.84c-1.55-.8-3.27-1.51-5.16-2.12-1.89-.61-4.17-.92-6.84-.92-2.99,0-5.13.41-6.44,1.24-1.31.83-1.96,2.09-1.96,3.8,0,1.01.24,1.87.72,2.56.48.69,1.16,1.32,2.04,1.88s1.89,1.07,3.04,1.52c1.15.45,2.41.92,3.8,1.4,2.88,1.07,5.39,2.12,7.52,3.16,2.13,1.04,3.91,2.25,5.32,3.64,1.41,1.39,2.47,3.01,3.16,4.88.69,1.87,1.04,4.13,1.04,6.8,0,5.17-1.81,9.19-5.44,12.04-3.63,2.85-9.09,4.28-16.4,4.28-2.45,0-4.67-.15-6.64-.44-1.97-.29-3.72-.65-5.24-1.08-1.52-.43-2.83-.88-3.92-1.36-1.09-.48-2.01-.93-2.76-1.36l3.52-9.92c1.65.91,3.69,1.72,6.12,2.44,2.43.72,5.4,1.08,8.92,1.08Z"/>
        <path class="cls-1" d="M879.17,17.68v10.64h-16.72v44.8h-12.48V28.32h-16.72v-10.64h45.92Z"/>
        <path class="cls-2" d="M167.67,153.12c-2.21-4.66-4.38-9.49-6.53-14.5-2.15-5.01-4.19-9.96-6.12-14.86-1.93-4.9-3.71-9.59-5.33-14.08-1.62-4.48-3.02-8.48-4.2-12h13.76c1.04,3.21,2.19,6.67,3.46,10.37,1.27,3.7,2.57,7.39,3.88,11.06,1.32,3.68,2.58,7.2,3.79,10.56,1.21,3.37,2.36,6.27,3.47,8.72,1.04-2.43,2.18-5.33,3.42-8.7,1.24-3.37,2.51-6.89,3.83-10.56,1.32-3.67,2.61-7.36,3.88-11.06,1.27-3.7,2.43-7.16,3.47-10.39h13.29c-1.24,3.54-2.67,7.54-4.29,12.01-1.62,4.47-3.38,9.16-5.3,14.07-1.92,4.91-3.95,9.87-6.08,14.88-2.13,5.01-4.3,9.84-6.5,14.48h-11.9Z"/>
        <path class="cls-2" d="M240.05,153.12c-.62-1.93-1.28-3.9-1.99-5.94-.71-2.03-1.42-4.05-2.12-6.06h-21.65c-.7,2.02-1.4,4.05-2.1,6.08-.7,2.03-1.36,4.01-1.97,5.92h-12.96c2.09-5.97,4.07-11.49,5.94-16.56,1.87-5.07,3.7-9.84,5.5-14.32,1.79-4.48,3.56-8.73,5.3-12.76,1.74-4.03,3.54-7.96,5.42-11.8h11.83c1.82,3.84,3.62,7.77,5.39,11.8,1.77,4.03,3.55,8.28,5.34,12.76s3.63,9.25,5.5,14.32c1.88,5.07,3.86,10.59,5.95,16.56h-13.37ZM225.05,110.24c-.28.8-.69,1.9-1.22,3.29-.54,1.39-1.15,2.99-1.83,4.8-.69,1.82-1.45,3.82-2.3,6s-1.71,4.47-2.58,6.87h15.85c-.85-2.4-1.67-4.7-2.46-6.89-.79-2.19-1.55-4.19-2.27-6.01-.72-1.82-1.34-3.42-1.88-4.8-.54-1.38-.98-2.47-1.31-3.26Z"/>
        <path class="cls-2" d="M283.01,154.24c-9.01,0-15.88-2.51-20.6-7.52-4.72-5.01-7.08-12.13-7.08-21.36,0-4.59.72-8.68,2.16-12.28,1.44-3.6,3.41-6.64,5.92-9.12,2.51-2.48,5.49-4.36,8.96-5.64,3.47-1.28,7.23-1.92,11.28-1.92,2.35,0,4.48.17,6.4.52,1.92.35,3.6.75,5.04,1.2,1.44.45,2.64.92,3.6,1.4s1.65.85,2.08,1.12l-3.6,10.08c-1.71-.91-3.69-1.68-5.96-2.32-2.27-.64-4.84-.96-7.72-.96-1.92,0-3.8.32-5.64.96-1.84.64-3.47,1.67-4.88,3.08-1.41,1.41-2.55,3.24-3.4,5.48-.85,2.24-1.28,4.96-1.28,8.16,0,2.56.28,4.95.84,7.16.56,2.21,1.47,4.12,2.72,5.72,1.25,1.6,2.89,2.87,4.92,3.8,2.03.93,4.48,1.4,7.36,1.4,1.81,0,3.44-.11,4.88-.32,1.44-.21,2.72-.47,3.84-.76,1.12-.29,2.11-.63,2.96-1,.85-.37,1.63-.72,2.32-1.04l3.44,10c-1.76,1.07-4.24,2.03-7.44,2.88s-6.91,1.28-11.12,1.28Z"/>
        <path class="cls-2" d="M332.05,154.24c-9.01,0-15.88-2.51-20.6-7.52-4.72-5.01-7.08-12.13-7.08-21.36,0-4.59.72-8.68,2.16-12.28,1.44-3.6,3.41-6.64,5.92-9.12,2.51-2.48,5.49-4.36,8.96-5.64,3.47-1.28,7.23-1.92,11.28-1.92,2.35,0,4.48.17,6.4.52,1.92.35,3.6.75,5.04,1.2,1.44.45,2.64.92,3.6,1.4s1.65.85,2.08,1.12l-3.6,10.08c-1.71-.91-3.69-1.68-5.96-2.32-2.27-.64-4.84-.96-7.72-.96-1.92,0-3.8.32-5.64.96-1.84.64-3.47,1.67-4.88,3.08-1.41,1.41-2.55,3.24-3.4,5.48-.85,2.24-1.28,4.96-1.28,8.16,0,2.56.28,4.95.84,7.16.56,2.21,1.47,4.12,2.72,5.72,1.25,1.6,2.89,2.87,4.92,3.8,2.03.93,4.48,1.4,7.36,1.4,1.81,0,3.44-.11,4.88-.32,1.44-.21,2.72-.47,3.84-.76,1.12-.29,2.11-.63,2.96-1,.85-.37,1.63-.72,2.32-1.04l3.44,10c-1.76,1.07-4.24,2.03-7.44,2.88s-6.91,1.28-11.12,1.28Z"/>
        <path class="cls-2" d="M357.81,97.68h12.48v55.44h-12.48v-55.44Z"/>
        <path class="cls-2" d="M419.49,153.12c-3.57-6.35-7.44-12.61-11.6-18.8-4.16-6.19-8.59-12.03-13.28-17.52v36.32h-12.32v-55.44h10.16c1.76,1.76,3.71,3.92,5.84,6.48,2.13,2.56,4.31,5.29,6.52,8.2,2.21,2.91,4.41,5.92,6.6,9.04,2.19,3.12,4.24,6.12,6.16,9v-32.72h12.4v55.44h-10.48Z"/>
        <path class="cls-2" d="M467.25,154.24c-9.01,0-15.88-2.51-20.6-7.52-4.72-5.01-7.08-12.13-7.08-21.36,0-4.59.72-8.68,2.16-12.28,1.44-3.6,3.41-6.64,5.92-9.12,2.51-2.48,5.49-4.36,8.96-5.64,3.47-1.28,7.23-1.92,11.28-1.92,2.35,0,4.48.17,6.4.52,1.92.35,3.6.75,5.04,1.2,1.44.45,2.64.92,3.6,1.4s1.65.85,2.08,1.12l-3.6,10.08c-1.71-.91-3.69-1.68-5.96-2.32-2.27-.64-4.84-.96-7.72-.96-1.92,0-3.8.32-5.64.96-1.84.64-3.47,1.67-4.88,3.08-1.41,1.41-2.55,3.24-3.4,5.48-.85,2.24-1.28,4.96-1.28,8.16,0,2.56.28,4.95.84,7.16.56,2.21,1.47,4.12,2.72,5.72,1.25,1.6,2.89,2.87,4.92,3.8,2.03.93,4.48,1.4,7.36,1.4,1.81,0,3.44-.11,4.88-.32,1.44-.21,2.72-.47,3.84-.76,1.12-.29,2.11-.63,2.96-1,.85-.37,1.63-.72,2.32-1.04l3.44,10c-1.76,1.07-4.24,2.03-7.44,2.88-3.2.85-6.91,1.28-11.12,1.28Z"/>
        <path class="cls-2" d="M493.01,153.12v-55.44h37.44v10.48h-24.96v10.88h22.16v10.24h-22.16v13.36h26.8v10.48h-39.28Z"/>
        <path class="cls-2" d="M577.89,153.12c-3.57-6.35-7.44-12.61-11.6-18.8-4.16-6.19-8.59-12.03-13.28-17.52v36.32h-12.32v-55.44h10.16c1.76,1.76,3.71,3.92,5.84,6.48,2.13,2.56,4.31,5.29,6.52,8.2,2.21,2.91,4.41,5.92,6.6,9.04,2.19,3.12,4.24,6.12,6.16,9v-32.72h12.4v55.44h-10.48Z"/>
        <path class="cls-2" d="M641.49,97.68v10.64h-16.72v44.8h-12.48v-44.8h-16.72v-10.64h45.92Z"/>
        <path class="cls-2" d="M648.69,153.12v-55.44h37.44v10.48h-24.96v10.88h22.16v10.24h-22.16v13.36h26.8v10.48h-39.28Z"/>
        <path class="cls-2" d="M712.61,97.04c8.32,0,14.69,1.48,19.12,4.44s6.64,7.56,6.64,13.8c0,3.89-.89,7.05-2.68,9.48-1.79,2.43-4.36,4.33-7.72,5.72,1.12,1.39,2.29,2.97,3.52,4.76,1.23,1.79,2.44,3.65,3.64,5.6,1.2,1.95,2.36,3.97,3.48,6.08,1.12,2.11,2.16,4.17,3.12,6.2h-13.95c-1.02-1.81-2.05-3.65-3.09-5.52-1.04-1.87-2.11-3.68-3.21-5.44-1.1-1.76-2.18-3.43-3.25-5-1.07-1.57-2.14-3-3.21-4.28h-6.16v20.24h-12.48v-54.64c2.72-.53,5.53-.91,8.44-1.12,2.91-.21,5.51-.32,7.8-.32ZM713.33,107.68c-.91,0-1.72.03-2.44.08-.72.05-1.4.11-2.04.16v15.04h3.52c4.69,0,8.05-.59,10.08-1.76,2.03-1.17,3.04-3.17,3.04-6s-1.03-4.65-3.08-5.8c-2.05-1.15-5.08-1.72-9.08-1.72Z"/>
        <path class="cls-2" d="M800.01,153.12c-1.12-1.8-2.45-3.75-3.97-5.85-1.52-2.1-3.17-4.21-4.93-6.34-1.76-2.13-3.6-4.17-5.53-6.12s-3.85-3.68-5.77-5.18v23.48h-12.48v-55.44h12.48v20.84c3.21-3.37,6.47-6.9,9.78-10.58,3.31-3.68,6.37-7.1,9.17-10.26h14.81c-3.77,4.49-7.57,8.81-11.39,12.96-3.82,4.15-7.84,8.32-12.05,12.52,4.43,3.7,8.71,8.09,12.83,13.17s8.08,10.68,11.89,16.79h-14.84Z"/>
        <path class="cls-2" d="M842.93,154.24c-3.89,0-7.25-.55-10.08-1.64-2.83-1.09-5.16-2.61-7-4.56-1.84-1.95-3.2-4.27-4.08-6.96-.88-2.69-1.32-5.67-1.32-8.92v-34.48h12.48v33.44c0,2.24.25,4.15.76,5.72.51,1.57,1.2,2.85,2.08,3.84.88.99,1.95,1.69,3.2,2.12,1.25.43,2.63.64,4.12.64,3.04,0,5.51-.93,7.4-2.8,1.89-1.87,2.84-5.04,2.84-9.52v-33.44h12.48v34.48c0,3.25-.45,6.24-1.36,8.96-.91,2.72-2.29,5.05-4.16,7-1.87,1.95-4.24,3.45-7.12,4.52s-6.29,1.6-10.24,1.6Z"/>
        <path class="cls-2" d="M914.21,153.12c-3.57-6.35-7.44-12.61-11.6-18.8-4.16-6.19-8.59-12.03-13.28-17.52v36.32h-12.32v-55.44h10.16c1.76,1.76,3.71,3.92,5.84,6.48,2.13,2.56,4.31,5.29,6.52,8.2,2.21,2.91,4.41,5.92,6.6,9.04,2.19,3.12,4.24,6.12,6.16,9v-32.72h12.4v55.44h-10.48Z"/>
        <path class="cls-2" d="M963.73,107.28c-5.81,0-10.01,1.61-12.6,4.84-2.59,3.23-3.88,7.64-3.88,13.24,0,2.72.32,5.19.96,7.4.64,2.21,1.6,4.12,2.88,5.72s2.88,2.84,4.8,3.72,4.16,1.32,6.72,1.32c1.39,0,2.57-.03,3.56-.08.99-.05,1.85-.16,2.6-.32v-19.28h12.48v27.44c-1.49.59-3.89,1.21-7.2,1.88-3.31.67-7.39,1-12.24,1-4.16,0-7.93-.64-11.32-1.92-3.39-1.28-6.28-3.15-8.68-5.6-2.4-2.45-4.25-5.47-5.56-9.04-1.31-3.57-1.96-7.65-1.96-12.24s.72-8.75,2.16-12.32c1.44-3.57,3.41-6.6,5.92-9.08,2.51-2.48,5.45-4.36,8.84-5.64,3.39-1.28,7-1.92,10.84-1.92,2.61,0,4.97.17,7.08.52,2.11.35,3.92.75,5.44,1.2,1.52.45,2.77.92,3.76,1.4.99.48,1.69.85,2.12,1.12l-3.6,10c-1.71-.91-3.67-1.69-5.88-2.36-2.21-.67-4.63-1-7.24-1Z"/>
        <path class="cls-2" d="M1063.25,125.36c0,4.75-.71,8.92-2.12,12.52-1.41,3.6-3.35,6.61-5.8,9.04-2.45,2.43-5.37,4.25-8.76,5.48-3.39,1.23-7.03,1.84-10.92,1.84s-7.36-.61-10.72-1.84c-3.36-1.23-6.29-3.05-8.8-5.48-2.51-2.43-4.48-5.44-5.92-9.04-1.44-3.6-2.16-7.77-2.16-12.52s.75-8.92,2.24-12.52c1.49-3.6,3.51-6.63,6.04-9.08,2.53-2.45,5.47-4.29,8.8-5.52,3.33-1.23,6.84-1.84,10.52-1.84s7.36.61,10.72,1.84c3.36,1.23,6.29,3.07,8.8,5.52,2.51,2.45,4.48,5.48,5.92,9.08,1.44,3.6,2.16,7.77,2.16,12.52ZM1020.92,125.36c0,2.72.33,5.17,1,7.36.67,2.19,1.63,4.07,2.88,5.64,1.25,1.57,2.79,2.79,4.6,3.64,1.81.85,3.89,1.28,6.24,1.28s4.36-.43,6.2-1.28c1.84-.85,3.39-2.07,4.64-3.64,1.25-1.57,2.21-3.45,2.88-5.64.67-2.19,1-4.64,1-7.36s-.33-5.19-1-7.4c-.67-2.21-1.63-4.11-2.88-5.68-1.25-1.57-2.8-2.79-4.64-3.64-1.84-.85-3.91-1.28-6.2-1.28s-4.43.44-6.24,1.32c-1.81.88-3.35,2.11-4.6,3.68-1.25,1.57-2.21,3.47-2.88,5.68-.67,2.21-1,4.65-1,7.32Z"/>
        <path class="cls-2" d="M1087.96,143.6c1.76,0,3.21-.15,4.36-.44,1.15-.29,2.07-.69,2.76-1.2.69-.51,1.17-1.11,1.44-1.8.27-.69.4-1.47.4-2.32,0-1.81-.85-3.32-2.56-4.52-1.71-1.2-4.64-2.49-8.8-3.88-1.81-.64-3.63-1.37-5.44-2.2-1.81-.83-3.44-1.87-4.88-3.12-1.44-1.25-2.61-2.77-3.52-4.56-.91-1.79-1.36-3.96-1.36-6.52s.48-4.87,1.44-6.92c.96-2.05,2.32-3.8,4.08-5.24,1.76-1.44,3.89-2.55,6.4-3.32,2.51-.77,5.33-1.16,8.48-1.16,3.73,0,6.96.4,9.68,1.2s4.96,1.68,6.72,2.64l-3.6,9.84c-1.55-.8-3.27-1.51-5.16-2.12-1.89-.61-4.17-.92-6.84-.92-2.99,0-5.13.41-6.44,1.24-1.31.83-1.96,2.09-1.96,3.8,0,1.01.24,1.87.72,2.56.48.69,1.16,1.32,2.04,1.88.88.56,1.89,1.07,3.04,1.52,1.15.45,2.41.92,3.8,1.4,2.88,1.07,5.39,2.12,7.52,3.16,2.13,1.04,3.91,2.25,5.32,3.64,1.41,1.39,2.47,3.01,3.16,4.88.69,1.87,1.04,4.13,1.04,6.8,0,5.17-1.81,9.19-5.44,12.04-3.63,2.85-9.09,4.28-16.4,4.28-2.45,0-4.67-.15-6.64-.44-1.97-.29-3.72-.65-5.24-1.08-1.52-.43-2.83-.88-3.92-1.36-1.09-.48-2.01-.93-2.76-1.36l3.52-9.92c1.65.91,3.69,1.72,6.12,2.44,2.43.72,5.4,1.08,8.92,1.08Z"/>
        <path class="cls-2" d="M1151.29,153.12c-1.12-1.8-2.45-3.75-3.97-5.85-1.53-2.1-3.17-4.21-4.93-6.34-1.76-2.13-3.6-4.17-5.53-6.12s-3.85-3.68-5.77-5.18v23.48h-12.48v-55.44h12.48v20.84c3.21-3.37,6.47-6.9,9.78-10.58,3.31-3.68,6.37-7.1,9.17-10.26h14.81c-3.77,4.49-7.57,8.81-11.39,12.96-3.82,4.15-7.84,8.32-12.05,12.52,4.43,3.7,8.71,8.09,12.83,13.17,4.12,5.08,8.08,10.68,11.89,16.79h-14.84Z"/>
        <path class="cls-2" d="M1211.72,153.12c-.62-1.93-1.28-3.9-1.99-5.94-.71-2.03-1.42-4.05-2.12-6.06h-21.65c-.7,2.02-1.4,4.05-2.11,6.08-.7,2.03-1.36,4.01-1.96,5.92h-12.96c2.09-5.97,4.07-11.49,5.94-16.56,1.87-5.07,3.7-9.84,5.5-14.32,1.79-4.48,3.56-8.73,5.3-12.76,1.74-4.03,3.54-7.96,5.42-11.8h11.83c1.82,3.84,3.62,7.77,5.38,11.8,1.77,4.03,3.55,8.28,5.35,12.76s3.63,9.25,5.5,14.32c1.88,5.07,3.86,10.59,5.95,16.56h-13.37ZM1196.72,110.24c-.28.8-.69,1.9-1.22,3.29-.54,1.39-1.15,2.99-1.83,4.8-.68,1.82-1.45,3.82-2.3,6-.85,2.18-1.71,4.47-2.58,6.87h15.85c-.85-2.4-1.67-4.7-2.46-6.89-.79-2.19-1.55-4.19-2.27-6.01-.72-1.82-1.34-3.42-1.88-4.8-.54-1.38-.98-2.47-1.31-3.26Z"/>
        <path class="cls-2" d="M1247.64,97.04c8.32,0,14.69,1.48,19.12,4.44,4.43,2.96,6.64,7.56,6.64,13.8,0,3.89-.89,7.05-2.68,9.48-1.79,2.43-4.36,4.33-7.72,5.72,1.12,1.39,2.29,2.97,3.52,4.76,1.23,1.79,2.44,3.65,3.64,5.6,1.2,1.95,2.36,3.97,3.48,6.08,1.12,2.11,2.16,4.17,3.12,6.2h-13.95c-1.02-1.81-2.05-3.65-3.09-5.52-1.04-1.87-2.11-3.68-3.21-5.44-1.1-1.76-2.18-3.43-3.25-5-1.07-1.57-2.14-3-3.21-4.28h-6.16v20.24h-12.48v-54.64c2.72-.53,5.53-.91,8.44-1.12,2.91-.21,5.51-.32,7.8-.32ZM1248.36,107.68c-.91,0-1.72.03-2.44.08-.72.05-1.4.11-2.04.16v15.04h3.52c4.69,0,8.05-.59,10.08-1.76,2.03-1.17,3.04-3.17,3.04-6s-1.03-4.65-3.08-5.8c-2.05-1.15-5.08-1.72-9.08-1.72Z"/>
      </g>
    </g>
  </g>
</svg>